<svg xmlns="http://www.w3.org/2000/svg" width="24" height="24" fill="#ffffff" viewBox="0 0 24 24">
  <path d="M12 0C5.37 0 0 5.37 0 12c0 5.3 3.438 9.8 8.207 11.387.6.113.793-.262.793-.583 0-.288-.012-1.244-.017-2.256-3.338.726-4.042-1.61-4.042-1.61-.546-1.386-1.334-1.755-1.334-1.755-1.09-.745.083-.73.083-.73 1.204.084 1.837 1.236 1.837 1.236 1.07 1.834 2.807 1.304 3.492.997.108-.776.42-1.304.763-1.604-2.665-.303-5.467-1.333-5.467-5.931 0-1.31.467-2.38 1.236-3.22-.123-.303-.535-1.524.117-3.176 0 0 1.008-.322 3.3 1.23a11.49 11.49 0 013.003-.404c1.02.004 2.048.138 3.003.404 2.29-1.552 3.295-1.23 3.295-1.23.655 1.653.243 2.874.12 3.176.772.84 1.235 1.91 1.235 3.22 0 4.61-2.807 5.625-5.48 5.921.432.372.816 1.102.816 2.222 0 1.604-.015 2.898-.015 3.293 0 .323.192.699.801.581C20.565 21.795 24 17.295 24 12c0-6.63-5.37-12-12-12z"/>
</svg>